<svg width="20" height="20" viewBox="0 0 20 20" fill="none" xmlns="http://www.w3.org/2000/svg">
<path d="M2 20C1.45 20 0.979001 19.755 0.587001 19.265C0.195002 18.775 -0.000664969 18.1867 1.69779e-06 17.5V2.5C1.69779e-06 1.8125 0.196002 1.22375 0.588002 0.733752C0.980002 0.243752 1.45067 -0.000831211 2 2.12224e-06H18C18.55 2.12224e-06 19.021 0.245002 19.413 0.735002C19.805 1.225 20.0007 1.81334 20 2.5V17.5C20 18.1875 19.804 18.7762 19.412 19.2662C19.02 19.7562 18.5493 20.0008 18 20H2ZM10 11.0313C10.0833 11.0313 10.171 11.0154 10.263 10.9837C10.355 10.9521 10.4423 10.9054 10.525 10.8438L17.6 5.3125C17.7333 5.20833 17.8333 5.07792 17.9 4.92125C17.9667 4.76458 18 4.59292 18 4.40625C18 3.98958 17.8583 3.67708 17.575 3.46875C17.2917 3.26042 17 3.27084 16.7 3.5L10 8.75L3.3 3.5C3 3.27084 2.70833 3.26583 2.425 3.485C2.14167 3.70417 2 4.01125 2 4.40625C2 4.61458 2.03333 4.79708 2.1 4.95375C2.16667 5.11042 2.26667 5.23 2.4 5.3125L9.475 10.8438C9.55833 10.9063 9.646 10.9533 9.738 10.985C9.83 11.0167 9.91733 11.0321 10 11.0313Z" fill="#D9F4E6"/>
</svg>
