<svg width="38" height="38" viewBox="0 0 38 38" fill="none" xmlns="http://www.w3.org/2000/svg">
<circle cx="19" cy="19" r="19" fill="#348585"/>
<path d="M16.15 10.3752L24.575 18.7752C24.675 18.8752 24.746 18.9835 24.788 19.1002C24.83 19.2169 24.8506 19.3419 24.85 19.4752C24.85 19.6085 24.8293 19.7335 24.788 19.8502C24.7466 19.9669 24.6756 20.0752 24.575 20.1752L16.15 28.6002C15.9166 28.8335 15.625 28.9502 15.275 28.9502C14.925 28.9502 14.625 28.8252 14.375 28.5752C14.125 28.3252 14 28.0335 14 27.7002C14 27.3669 14.125 27.0752 14.375 26.8252L21.725 19.4752L14.375 12.1252C14.1416 11.8919 14.025 11.6042 14.025 11.2622C14.025 10.9202 14.15 10.6245 14.4 10.3752C14.65 10.1252 14.9416 10.0002 15.275 10.0002C15.6083 10.0002 15.9 10.1252 16.15 10.3752Z" fill="white"/>
</svg>
