<svg width="12" height="20" viewBox="0 0 12 20" fill="none" xmlns="http://www.w3.org/2000/svg">
<path d="M2.57489 0.900097L10.9999 9.3001C11.0999 9.4001 11.1709 9.50843 11.2129 9.6251C11.2549 9.74176 11.2756 9.86676 11.2749 10.0001C11.2749 10.1334 11.2542 10.2584 11.2129 10.3751C11.1716 10.4918 11.1006 10.6001 10.9999 10.7001L2.57489 19.1251C2.34155 19.3584 2.04989 19.4751 1.69989 19.4751C1.34989 19.4751 1.04989 19.3501 0.799888 19.1001C0.549888 18.8501 0.424888 18.5584 0.424888 18.2251C0.424888 17.8918 0.549888 17.6001 0.799888 17.3501L8.14989 10.0001L0.799888 2.6501C0.566554 2.41676 0.449887 2.1291 0.449887 1.7871C0.449887 1.4451 0.574887 1.14943 0.824887 0.900097C1.07489 0.650097 1.36655 0.525097 1.69989 0.525097C2.03322 0.525097 2.32489 0.650097 2.57489 0.900097Z" fill="white"/>
</svg>
