<svg width="38" height="38" viewBox="0 0 38 38" fill="none" xmlns="http://www.w3.org/2000/svg">
<circle cx="19" cy="19" r="19" transform="rotate(-180 19 19)" fill="#348585"/>
<path d="M21.85 27.6248L13.425 19.2248C13.325 19.1248 13.254 19.0165 13.212 18.8998C13.17 18.7831 13.1494 18.6581 13.15 18.5248C13.15 18.3915 13.1707 18.2665 13.212 18.1498C13.2534 18.0331 13.3244 17.9248 13.425 17.8248L21.85 9.3998C22.0834 9.16647 22.375 9.0498 22.725 9.0498C23.075 9.0498 23.375 9.1748 23.625 9.4248C23.875 9.6748 24 9.96647 24 10.2998C24 10.6331 23.875 10.9248 23.625 11.1748L16.275 18.5248L23.625 25.8748C23.8584 26.1081 23.975 26.3958 23.975 26.7378C23.975 27.0798 23.85 27.3755 23.6 27.6248C23.35 27.8748 23.0584 27.9998 22.725 27.9998C22.3917 27.9998 22.1 27.8748 21.85 27.6248Z" fill="white"/>
</svg>
