<svg width="12" height="20" viewBox="0 0 12 20" fill="none" xmlns="http://www.w3.org/2000/svg">
<path d="M9.12494 19.0999L0.699942 10.6999C0.599942 10.5999 0.528942 10.4916 0.486942 10.3749C0.444942 10.2582 0.424276 10.1332 0.424942 9.9999C0.424942 9.86657 0.445609 9.74157 0.486942 9.6249C0.528276 9.50824 0.599275 9.3999 0.699942 9.2999L9.12494 0.874902C9.35828 0.641569 9.64994 0.524902 9.99994 0.524902C10.3499 0.524902 10.6499 0.649902 10.8999 0.899902C11.1499 1.1499 11.2749 1.44157 11.2749 1.7749C11.2749 2.10824 11.1499 2.3999 10.8999 2.6499L3.54994 9.9999L10.8999 17.3499C11.1333 17.5832 11.2499 17.8709 11.2499 18.2129C11.2499 18.5549 11.1249 18.8506 10.8749 19.0999C10.6249 19.3499 10.3333 19.4749 9.99994 19.4749C9.66661 19.4749 9.37494 19.3499 9.12494 19.0999Z" fill="white"/>
</svg>
