<svg width="251" height="39" viewBox="0 0 251 39" fill="none" xmlns="http://www.w3.org/2000/svg">
<path d="M55.5327 15.25C55.3736 14.697 55.1501 14.2083 54.8622 13.7841C54.5743 13.3523 54.2221 12.9886 53.8054 12.6932C53.3963 12.3902 52.9266 12.1591 52.3963 12C51.8736 11.8409 51.294 11.7614 50.6577 11.7614C49.4683 11.7614 48.4228 12.0568 47.5213 12.6477C46.6274 13.2386 45.9304 14.0985 45.4304 15.2273C44.9304 16.3485 44.6804 17.7197 44.6804 19.3409C44.6804 20.9621 44.9266 22.3409 45.419 23.4773C45.9115 24.6136 46.6084 25.4811 47.5099 26.0795C48.4115 26.6705 49.4759 26.9659 50.7031 26.9659C51.8168 26.9659 52.7675 26.7689 53.5554 26.375C54.3509 25.9735 54.9569 25.4091 55.3736 24.6818C55.7978 23.9545 56.0099 23.0947 56.0099 22.1023L57.0099 22.25H51.0099V18.5455H60.7486V21.4773C60.7486 23.5227 60.3168 25.2803 59.4531 26.75C58.5895 28.2121 57.4001 29.3409 55.8849 30.1364C54.3698 30.9242 52.6349 31.3182 50.6804 31.3182C48.4986 31.3182 46.5819 30.8371 44.9304 29.875C43.2789 28.9053 41.991 27.5303 41.0668 25.75C40.1501 23.9621 39.6918 21.8409 39.6918 19.3864C39.6918 17.5 39.9645 15.8182 40.5099 14.3409C41.063 12.8561 41.8357 11.5985 42.8281 10.5682C43.8205 9.53788 44.9759 8.75379 46.294 8.21591C47.6122 7.67803 49.0402 7.40909 50.5781 7.40909C51.8963 7.40909 53.1236 7.60227 54.2599 7.98864C55.3963 8.36742 56.4039 8.9053 57.2827 9.60227C58.169 10.2992 58.8925 11.1288 59.4531 12.0909C60.0137 13.0455 60.3736 14.0985 60.5327 15.25H55.5327ZM64.3537 31V13.5455H69.0469V16.5909H69.2287C69.5469 15.5076 70.081 14.6894 70.831 14.1364C71.581 13.5758 72.4446 13.2955 73.4219 13.2955C73.6643 13.2955 73.9257 13.3106 74.206 13.3409C74.4863 13.3712 74.7325 13.4129 74.9446 13.4659V17.7614C74.7173 17.6932 74.4029 17.6326 74.0014 17.5795C73.5999 17.5265 73.2325 17.5 72.8991 17.5C72.187 17.5 71.5507 17.6553 70.9901 17.9659C70.437 18.2689 69.9976 18.6932 69.6719 19.2386C69.3537 19.7841 69.1946 20.4129 69.1946 21.125V31H64.3537ZM84.5895 31.3409C82.794 31.3409 81.2486 30.9773 79.9531 30.25C78.6652 29.5152 77.6728 28.4773 76.9759 27.1364C76.2789 25.7879 75.9304 24.1932 75.9304 22.3523C75.9304 20.5568 76.2789 18.9811 76.9759 17.625C77.6728 16.2689 78.6539 15.2121 79.919 14.4545C81.1918 13.697 82.6842 13.3182 84.3963 13.3182C85.5478 13.3182 86.6198 13.5038 87.6122 13.875C88.6122 14.2386 89.4834 14.7879 90.2259 15.5227C90.9759 16.2576 91.5592 17.1818 91.9759 18.2955C92.3925 19.4015 92.6009 20.697 92.6009 22.1818V23.5114H77.8622V20.5114H88.044C88.044 19.8144 87.8925 19.197 87.5895 18.6591C87.2865 18.1212 86.866 17.7008 86.3281 17.3977C85.7978 17.0871 85.1804 16.9318 84.4759 16.9318C83.741 16.9318 83.0895 17.1023 82.5213 17.4432C81.9607 17.7765 81.5213 18.2273 81.2031 18.7955C80.8849 19.3561 80.7221 19.9811 80.7145 20.6705V23.5227C80.7145 24.3864 80.8736 25.1326 81.1918 25.7614C81.5175 26.3902 81.9759 26.875 82.5668 27.2159C83.1577 27.5568 83.8584 27.7273 84.669 27.7273C85.2069 27.7273 85.6993 27.6515 86.1463 27.5C86.5933 27.3485 86.9759 27.1212 87.294 26.8182C87.6122 26.5152 87.8546 26.1439 88.0213 25.7045L92.4986 26C92.2713 27.0758 91.8054 28.0152 91.1009 28.8182C90.4039 29.6136 89.5024 30.2348 88.3963 30.6818C87.2978 31.1212 86.0289 31.3409 84.5895 31.3409ZM103.714 31.3409C101.919 31.3409 100.374 30.9773 99.0781 30.25C97.7902 29.5152 96.7978 28.4773 96.1009 27.1364C95.4039 25.7879 95.0554 24.1932 95.0554 22.3523C95.0554 20.5568 95.4039 18.9811 96.1009 17.625C96.7978 16.2689 97.7789 15.2121 99.044 14.4545C100.317 13.697 101.809 13.3182 103.521 13.3182C104.673 13.3182 105.745 13.5038 106.737 13.875C107.737 14.2386 108.608 14.7879 109.351 15.5227C110.101 16.2576 110.684 17.1818 111.101 18.2955C111.518 19.4015 111.726 20.697 111.726 22.1818V23.5114H96.9872V20.5114H107.169C107.169 19.8144 107.018 19.197 106.714 18.6591C106.411 18.1212 105.991 17.7008 105.453 17.3977C104.923 17.0871 104.305 16.9318 103.601 16.9318C102.866 16.9318 102.214 17.1023 101.646 17.4432C101.086 17.7765 100.646 18.2273 100.328 18.7955C100.01 19.3561 99.8471 19.9811 99.8395 20.6705V23.5227C99.8395 24.3864 99.9986 25.1326 100.317 25.7614C100.643 26.3902 101.101 26.875 101.692 27.2159C102.283 27.5568 102.983 27.7273 103.794 27.7273C104.332 27.7273 104.824 27.6515 105.271 27.5C105.718 27.3485 106.101 27.1212 106.419 26.8182C106.737 26.5152 106.98 26.1439 107.146 25.7045L111.624 26C111.396 27.0758 110.93 28.0152 110.226 28.8182C109.529 29.6136 108.627 30.2348 107.521 30.6818C106.423 31.1212 105.154 31.3409 103.714 31.3409ZM119.726 20.9091V31H114.885V13.5455H119.499V16.625H119.703C120.089 15.6098 120.737 14.8068 121.646 14.2159C122.555 13.6174 123.658 13.3182 124.953 13.3182C126.165 13.3182 127.222 13.5833 128.124 14.1136C129.025 14.6439 129.726 15.4015 130.226 16.3864C130.726 17.3636 130.976 18.5303 130.976 19.8864V31H126.135V20.75C126.143 19.6818 125.87 18.8485 125.317 18.25C124.764 17.6439 124.002 17.3409 123.033 17.3409C122.381 17.3409 121.805 17.4811 121.305 17.7614C120.813 18.0417 120.427 18.4508 120.146 18.9886C119.874 19.5189 119.733 20.1591 119.726 20.9091Z" fill="#75C59C"/>
<path d="M140.121 31L133.462 7.72727H138.837L142.689 23.8977H142.882L147.132 7.72727H151.734L155.973 23.9318H156.178L160.03 7.72727H165.405L158.746 31H153.95L149.518 15.7841H149.337L144.916 31H140.121ZM172.788 20.9091V31H167.947V7.72727H172.652V16.625H172.857C173.25 15.5947 173.887 14.7879 174.766 14.2045C175.644 13.6136 176.747 13.3182 178.072 13.3182C179.285 13.3182 180.341 13.5833 181.243 14.1136C182.152 14.6364 182.857 15.3902 183.357 16.375C183.864 17.3523 184.114 18.5227 184.107 19.8864V31H179.266V20.75C179.273 19.6742 179 18.8371 178.447 18.2386C177.902 17.6402 177.137 17.3409 176.152 17.3409C175.493 17.3409 174.91 17.4811 174.402 17.7614C173.902 18.0417 173.508 18.4508 173.22 18.9886C172.94 19.5189 172.796 20.1591 172.788 20.9091ZM195.871 31.3409C194.075 31.3409 192.53 30.9773 191.234 30.25C189.946 29.5152 188.954 28.4773 188.257 27.1364C187.56 25.7879 187.212 24.1932 187.212 22.3523C187.212 20.5568 187.56 18.9811 188.257 17.625C188.954 16.2689 189.935 15.2121 191.2 14.4545C192.473 13.697 193.965 13.3182 195.678 13.3182C196.829 13.3182 197.901 13.5038 198.893 13.875C199.893 14.2386 200.765 14.7879 201.507 15.5227C202.257 16.2576 202.84 17.1818 203.257 18.2955C203.674 19.4015 203.882 20.697 203.882 22.1818V23.5114H189.143V20.5114H199.325C199.325 19.8144 199.174 19.197 198.871 18.6591C198.568 18.1212 198.147 17.7008 197.609 17.3977C197.079 17.0871 196.462 16.9318 195.757 16.9318C195.022 16.9318 194.371 17.1023 193.803 17.4432C193.242 17.7765 192.803 18.2273 192.484 18.7955C192.166 19.3561 192.003 19.9811 191.996 20.6705V23.5227C191.996 24.3864 192.155 25.1326 192.473 25.7614C192.799 26.3902 193.257 26.875 193.848 27.2159C194.439 27.5568 195.14 27.7273 195.95 27.7273C196.488 27.7273 196.981 27.6515 197.428 27.5C197.875 27.3485 198.257 27.1212 198.575 26.8182C198.893 26.5152 199.136 26.1439 199.303 25.7045L203.78 26C203.553 27.0758 203.087 28.0152 202.382 28.8182C201.685 29.6136 200.784 30.2348 199.678 30.6818C198.579 31.1212 197.31 31.3409 195.871 31.3409ZM214.996 31.3409C213.2 31.3409 211.655 30.9773 210.359 30.25C209.071 29.5152 208.079 28.4773 207.382 27.1364C206.685 25.7879 206.337 24.1932 206.337 22.3523C206.337 20.5568 206.685 18.9811 207.382 17.625C208.079 16.2689 209.06 15.2121 210.325 14.4545C211.598 13.697 213.09 13.3182 214.803 13.3182C215.954 13.3182 217.026 13.5038 218.018 13.875C219.018 14.2386 219.89 14.7879 220.632 15.5227C221.382 16.2576 221.965 17.1818 222.382 18.2955C222.799 19.4015 223.007 20.697 223.007 22.1818V23.5114H208.268V20.5114H218.45C218.45 19.8144 218.299 19.197 217.996 18.6591C217.693 18.1212 217.272 17.7008 216.734 17.3977C216.204 17.0871 215.587 16.9318 214.882 16.9318C214.147 16.9318 213.496 17.1023 212.928 17.4432C212.367 17.7765 211.928 18.2273 211.609 18.7955C211.291 19.3561 211.128 19.9811 211.121 20.6705V23.5227C211.121 24.3864 211.28 25.1326 211.598 25.7614C211.924 26.3902 212.382 26.875 212.973 27.2159C213.564 27.5568 214.265 27.7273 215.075 27.7273C215.613 27.7273 216.106 27.6515 216.553 27.5C217 27.3485 217.382 27.1212 217.7 26.8182C218.018 26.5152 218.261 26.1439 218.428 25.7045L222.905 26C222.678 27.0758 222.212 28.0152 221.507 28.8182C220.81 29.6136 219.909 30.2348 218.803 30.6818C217.704 31.1212 216.435 31.3409 214.996 31.3409ZM231.007 7.72727V31H226.166V7.72727H231.007ZM249.408 18.5227L244.976 18.7955C244.9 18.4167 244.737 18.0758 244.487 17.7727C244.237 17.4621 243.908 17.2159 243.499 17.0341C243.097 16.8447 242.616 16.75 242.055 16.75C241.305 16.75 240.673 16.9091 240.158 17.2273C239.643 17.5379 239.385 17.9545 239.385 18.4773C239.385 18.8939 239.552 19.2462 239.885 19.5341C240.218 19.822 240.79 20.053 241.601 20.2273L244.76 20.8636C246.457 21.2121 247.722 21.7727 248.555 22.5455C249.389 23.3182 249.805 24.3333 249.805 25.5909C249.805 26.7348 249.468 27.7386 248.794 28.6023C248.127 29.4659 247.211 30.1402 246.044 30.625C244.885 31.1023 243.548 31.3409 242.033 31.3409C239.722 31.3409 237.881 30.8598 236.51 29.8977C235.146 28.928 234.347 27.6098 234.112 25.9432L238.874 25.6932C239.018 26.3977 239.366 26.9356 239.919 27.3068C240.472 27.6705 241.18 27.8523 242.044 27.8523C242.893 27.8523 243.574 27.6894 244.089 27.3636C244.612 27.0303 244.877 26.6023 244.885 26.0795C244.877 25.6402 244.692 25.2803 244.328 25C243.964 24.7121 243.404 24.4924 242.646 24.3409L239.624 23.7386C237.919 23.3977 236.65 22.8068 235.817 21.9659C234.991 21.125 234.578 20.053 234.578 18.75C234.578 17.6288 234.881 16.6629 235.487 15.8523C236.101 15.0417 236.961 14.4167 238.067 13.9773C239.18 13.5379 240.483 13.3182 241.976 13.3182C244.18 13.3182 245.915 13.7841 247.18 14.7159C248.453 15.6477 249.196 16.9167 249.408 18.5227Z" fill="#D9F4E6"/>
<path fill-rule="evenodd" clip-rule="evenodd" d="M2.50775 6.85275C0.97475 10.0412 0 14.5125 0 19.5C0 24.4875 0.97475 28.9587 2.50775 32.1472C4.08275 35.425 6.05675 37 7.875 37C9.69325 37 11.6655 35.425 13.2423 32.1472C14.7753 28.9587 15.75 24.4875 15.75 19.5C15.75 14.5125 14.7753 10.0412 13.2423 6.85275C11.6673 3.575 9.69325 2 7.875 2C6.05675 2 4.0845 3.575 2.50775 6.85275ZM4.92275 19.5C4.92275 25.604 6.244 30.553 7.875 30.553C9.38 30.553 10.6225 26.3337 10.8045 20.8825H8.86025C8.04475 20.8825 7.38325 20.263 7.38325 19.5C7.38325 18.737 8.04475 18.1175 8.8585 18.1175H10.8045C10.6242 12.6663 9.38175 8.447 7.875 8.447C6.244 8.447 4.921 13.396 4.921 19.5H4.92275Z" fill="#D9F4E6"/>
<path opacity="0.5" d="M13.2423 32.1472C11.6673 35.425 9.69325 37 7.875 37H23.401C27.874 37 31.5 29.1652 31.5 19.5C31.5 9.83475 27.874 2 23.401 2H7.875C9.69325 2 11.6655 3.575 13.2423 6.85275C14.7753 10.0412 15.75 14.5125 15.75 19.5C15.75 24.4875 14.7753 28.9587 13.2423 32.1472Z" fill="#D9F4E6"/>
</svg>
