<svg width="47" height="47" viewBox="0 0 47 47" fill="none" xmlns="http://www.w3.org/2000/svg">
<path d="M7.83334 35.25C7.27848 35.25 6.81305 35.062 6.43705 34.686C6.06105 34.31 5.8737 33.8452 5.87501 33.2917C5.87501 32.7368 6.06301 32.2714 6.43901 31.8954C6.81501 31.5194 7.27978 31.332 7.83334 31.3333H39.1667C39.7215 31.3333 40.187 31.5213 40.563 31.8973C40.939 32.2733 41.1263 32.7381 41.125 33.2917C41.125 33.8465 40.937 34.312 40.561 34.688C40.185 35.064 39.7202 35.2513 39.1667 35.25H7.83334ZM7.83334 25.4583C7.27848 25.4583 6.81305 25.2703 6.43705 24.8943C6.06105 24.5183 5.8737 24.0536 5.87501 23.5C5.87501 22.9451 6.06301 22.4797 6.43901 22.1037C6.81501 21.7277 7.27978 21.5404 7.83334 21.5417H39.1667C39.7215 21.5417 40.187 21.7297 40.563 22.1057C40.939 22.4817 41.1263 22.9465 41.125 23.5C41.125 24.0549 40.937 24.5203 40.561 24.8963C40.185 25.2723 39.7202 25.4596 39.1667 25.4583H7.83334ZM7.83334 15.6667C7.27848 15.6667 6.81305 15.4787 6.43705 15.1027C6.06105 14.7267 5.8737 14.2619 5.87501 13.7083C5.87501 13.1535 6.06301 12.688 6.43901 12.312C6.81501 11.936 7.27978 11.7487 7.83334 11.75H39.1667C39.7215 11.75 40.187 11.938 40.563 12.314C40.939 12.69 41.1263 13.1548 41.125 13.7083C41.125 14.2632 40.937 14.7286 40.561 15.1046C40.185 15.4806 39.7202 15.668 39.1667 15.6667H7.83334Z" fill="#D9F4E6"/>
</svg>
