<svg width="390" height="92" viewBox="0 0 390 92" fill="none" xmlns="http://www.w3.org/2000/svg">
<g clip-path="url(#clip0_270_740)">
<path opacity="0.25" d="M0 45.5V63.4374C16.2884 72.0399 35.3069 75.9033 53.8517 74.2874C77.8327 72.2065 100.317 61.3798 124.336 59.7561C149.503 58.0666 174.623 66.2971 198.706 73.4194C222.315 80.3944 245.843 83.0604 270.076 78.4879C282.397 76.1629 293.884 71.5749 305.676 67.1186C337.251 55.1875 379.348 39.9626 409 65.8321V45.5H0Z" fill="#5AC58F"/>
<path opacity="0.5" d="M0 45.5V51.6264C4.43083 59.8065 9.42063 67.5333 16.2543 73.4194C33.8822 88.6171 56.2375 88.5125 76.5444 80.9872C87.1613 77.0541 97.025 70.8851 107.107 65.5647C121.054 58.2022 135.986 47.7397 151.698 46.3176C164.057 45.2133 175.863 49.9679 185.304 58.5471C196.133 68.3857 206.545 82.5721 220.625 86.8346C234.408 91.0157 248.352 84.2422 261.228 77.4261C274.105 70.61 286.845 62.3136 301.079 60.7442C321.437 58.4774 339.688 69.6102 358.645 75.7947C368.938 79.1505 378.754 78.1856 388.328 72.8885C395.973 68.6686 404.688 62.4531 409 53.808V45.5H0Z" fill="#5AC58F"/>
<path d="M0 45.5V47.6816C51.1011 68.3625 107.052 73.1365 162.179 61.9959C176.835 59.0354 190.887 54.1994 205.672 51.7426C225.782 48.3985 244.009 56.4856 262.101 65.4601C282.186 75.4228 301.978 82.4055 324.201 80.375C353.693 77.6625 382.981 62.6624 409 47.5111V45.5H0Z" fill="#5AC58F"/>
</g>
<g clip-path="url(#clip1_270_740)">
<path opacity="0.25" d="M409 46.5V28.5626C392.712 19.9601 373.693 16.0967 355.148 17.7126C331.167 19.7935 308.683 30.6202 284.664 32.2439C259.497 33.9334 234.377 25.7029 210.294 18.5806C186.685 11.6056 163.157 8.93962 138.924 13.5121C126.603 15.8371 115.116 20.4251 103.324 24.8814C71.7488 36.8125 29.6525 52.0374 -3.33786e-06 26.1679V46.5L409 46.5Z" fill="#5AC58F"/>
<path opacity="0.5" d="M409 46.5V40.3736C404.569 32.1935 399.579 24.4667 392.746 18.5806C375.118 3.38287 352.762 3.4875 332.456 11.0128C321.839 14.9459 311.975 21.1149 301.893 26.4353C287.946 33.7978 273.014 44.2603 257.302 45.6824C244.943 46.7867 233.137 42.0321 223.696 33.4529C212.867 23.6143 202.455 9.42788 188.375 5.16538C174.592 0.984252 160.648 7.75775 147.772 14.5739C134.895 21.39 122.155 29.6864 107.921 31.2558C87.5635 33.5226 69.3119 22.3898 50.3547 16.2053C40.0615 12.8495 30.2456 13.8144 20.6715 19.1115C13.0267 23.3314 4.31154 29.5469 -3.33786e-06 38.192V46.5L409 46.5Z" fill="#5AC58F"/>
<path d="M409 46.5V44.3184C357.899 23.6375 301.948 18.8635 246.821 30.0041C232.165 32.9646 218.113 37.8006 203.328 40.2574C183.218 43.6015 164.991 35.5144 146.899 26.5399C126.814 16.5772 107.022 9.5945 84.7993 11.625C55.307 14.3375 26.0192 29.3376 -3.33786e-06 44.4889V46.5L409 46.5Z" fill="#5AC58F"/>
</g>
<defs>
<clipPath id="clip0_270_740">
<rect width="390" height="46.5" fill="white" transform="translate(0 45.5)"/>
</clipPath>
<clipPath id="clip1_270_740">
<rect width="390" height="46.5" fill="white" transform="matrix(-1 0 0 -1 390 46.5)"/>
</clipPath>
</defs>
</svg>
