<svg width="1920" height="239" viewBox="0 0 1920 239" fill="none" xmlns="http://www.w3.org/2000/svg">
<path opacity="0.25" d="M0 119V165.29C76.464 187.49 165.744 197.46 252.8 193.29C365.376 187.92 470.928 159.98 583.68 155.79C701.824 151.43 819.744 172.67 932.8 191.05C1043.63 209.05 1154.08 215.93 1267.84 204.13C1325.68 198.13 1379.6 186.29 1434.96 174.79C1583.18 144 1780.8 104.71 1920 171.47V119H0Z" fill="#5AC58F"/>
<path opacity="0.5" d="M0 119V134.81C20.8 155.92 44.224 175.86 76.304 191.05C159.056 230.27 264 230 359.328 210.58C409.168 200.43 455.472 184.51 502.8 170.78C568.272 151.78 638.368 124.78 712.128 121.11C770.144 118.26 825.568 130.53 869.888 152.67C920.72 178.06 969.6 214.67 1035.7 225.67C1100.4 236.46 1165.86 218.98 1226.3 201.39C1286.75 183.8 1346.56 162.39 1413.38 158.34C1508.94 152.49 1594.62 181.22 1683.62 197.18C1731.94 205.84 1778.02 203.35 1822.96 189.68C1858.85 178.79 1899.76 162.75 1920 140.44V119H0Z" fill="#5AC58F"/>
<path d="M0 119V124.63C239.888 178 502.544 190.32 761.328 161.57C830.128 153.93 896.096 141.45 965.504 135.11C1059.9 126.48 1145.47 147.35 1230.4 170.51C1324.69 196.22 1417.6 214.24 1521.92 209C1660.37 202 1797.86 163.29 1920 124.19V119H0Z" fill="#5AC58F"/>
<g clip-path="url(#clip0_180_618)">
<path opacity="0.25" d="M1920 120V73.71C1843.54 51.51 1754.26 41.54 1667.2 45.71C1554.62 51.08 1449.07 79.02 1336.32 83.21C1218.18 87.57 1100.26 66.33 987.2 47.95C876.368 29.95 765.92 23.07 652.16 34.87C594.32 40.87 540.4 52.71 485.04 64.21C336.816 95 139.2 134.29 0 67.53V120L1920 120Z" fill="#5AC58F"/>
<path opacity="0.5" d="M1920 120V104.19C1899.2 83.08 1875.78 63.14 1843.7 47.95C1760.94 8.73 1656 9 1560.67 28.42C1510.83 38.57 1464.53 54.49 1417.2 68.22C1351.73 87.22 1281.63 114.22 1207.87 117.89C1149.86 120.74 1094.43 108.47 1050.11 86.33C999.28 60.94 950.4 24.33 884.304 13.33C819.6 2.54 754.144 20.02 693.696 37.61C633.248 55.2 573.44 76.61 506.624 80.66C411.056 86.51 325.376 57.78 236.384 41.82C188.064 33.16 141.984 35.65 97.04 49.32C61.152 60.21 20.24 76.25 0 98.56V120L1920 120Z" fill="#5AC58F"/>
<path d="M1920 120V114.37C1680.11 61 1417.46 48.68 1158.67 77.43C1089.87 85.07 1023.9 97.55 954.496 103.89C860.096 112.52 774.528 91.65 689.6 68.49C595.312 42.78 502.4 24.76 398.08 30C259.632 37 122.144 75.71 0 114.81V120L1920 120Z" fill="#5AC58F"/>
</g>
<defs>
<clipPath id="clip0_180_618">
<rect width="1920" height="120" fill="white" transform="matrix(-1 0 0 -1 1920 120)"/>
</clipPath>
</defs>
</svg>
